<svg xmlns="http://www.w3.org/2000/svg" xmlns:xlink="http://www.w3.org/1999/xlink" width="1920" height="965.5" viewBox="0 0 1920 965.5">
  <defs>
    <radialGradient id="radial-gradient" cx="0.5" cy="0.462" r="0.303" gradientTransform="matrix(0.697, 0.717, -0.693, 0.674, 0.473, -0.316)" gradientUnits="objectBoundingBox">
      <stop offset="0" stop-color="#ff9000"/>
      <stop offset="1" stop-color="#fff"/>
    </radialGradient>
  </defs>
  <g id="Raggruppa_3" data-name="Raggruppa 3" transform="translate(-570.967 -106.37)">
    <g id="Raggruppa_1" data-name="Raggruppa 1" transform="translate(41.967 -7)">
      <rect id="Rettangolo_2" data-name="Rettangolo 2" width="1920" height="965.5" transform="translate(529 113.37)" opacity="0.227" fill="url(#radial-gradient)"/>
      <path id="Tracciato_1" data-name="Tracciato 1" d="M62,0A62,62,0,1,1,0,62,62,62,0,0,1,62,0Z" transform="translate(1183 846)" fill="#ff9000" opacity="0.253"/>
      <path id="Tracciato_2" data-name="Tracciato 2" d="M48.189,0A48.189,48.189,0,1,1,0,48.189,48.189,48.189,0,0,1,48.189,0Z" transform="translate(1723 234.622)" fill="#e9e9e9" opacity="0.641"/>
      <path id="Tracciato_3" data-name="Tracciato 3" d="M1068.006,611.653v18.364" transform="matrix(0.819, 0.574, -0.574, 0.819, 627.518, -447.471)" fill="none" stroke="#ffdcae" stroke-linecap="round" stroke-width="5"/>
      <path id="Tracciato_4" data-name="Tracciato 4" d="M1068.006,611.653v18.364" transform="matrix(0.819, 0.574, -0.574, 0.819, 647.593, -476.141)" fill="none" stroke="#ffdcae" stroke-linecap="round" stroke-width="5"/>
      <path id="Tracciato_5" data-name="Tracciato 5" d="M1068.006,611.653v18.364" transform="matrix(-0.574, 0.819, -0.819, -0.574, 2263.124, 130.536)" fill="none" stroke="#ffdcae" stroke-linecap="round" stroke-width="5"/>
      <path id="Tracciato_6" data-name="Tracciato 6" d="M1068.006,611.653v18.364" transform="matrix(-0.574, 0.819, -0.819, -0.574, 2291.795, 150.611)" fill="none" stroke="#ffdcae" stroke-linecap="round" stroke-width="5"/>
      <path id="Tracciato_3-2" data-name="Tracciato 3" d="M1068.006,611.653v18.364" transform="matrix(0.819, 0.574, -0.574, 0.819, 1352.518, -652.471)" fill="none" stroke="#ffdcae" stroke-linecap="round" stroke-width="5"/>
      <path id="Tracciato_4-2" data-name="Tracciato 4" d="M1068.006,611.653v18.364" transform="matrix(0.819, 0.574, -0.574, 0.819, 1372.593, -681.141)" fill="none" stroke="#ffdcae" stroke-linecap="round" stroke-width="5"/>
      <path id="Tracciato_5-2" data-name="Tracciato 5" d="M1068.006,611.653v18.364" transform="matrix(-0.574, 0.819, -0.819, -0.574, 2988.124, -74.464)" fill="none" stroke="#ffdcae" stroke-linecap="round" stroke-width="5"/>
      <path id="Tracciato_6-2" data-name="Tracciato 6" d="M1068.006,611.653v18.364" transform="matrix(-0.574, 0.819, -0.819, -0.574, 3016.795, -54.389)" fill="none" stroke="#ffdcae" stroke-linecap="round" stroke-width="5"/>
      <g id="Tracciato_7" data-name="Tracciato 7" transform="translate(1217 218)" fill="none" opacity="0.403">
        <path d="M17,0A17,17,0,1,1,0,17,17,17,0,0,1,17,0Z" stroke="none"/>
        <path d="M 17 5 C 13.79467964172363 5 10.78121948242188 6.248220443725586 8.514720916748047 8.514720916748047 C 6.248220443725586 10.78121948242188 5 13.79467964172363 5 17 C 5 20.20532035827637 6.248220443725586 23.21878051757812 8.514720916748047 25.48527908325195 C 10.78121948242188 27.75177955627441 13.79467964172363 29 17 29 C 20.20532035827637 29 23.21878051757812 27.75177955627441 25.48527908325195 25.48527908325195 C 27.75177955627441 23.21878051757812 29 20.20532035827637 29 17 C 29 13.79467964172363 27.75177955627441 10.78121948242188 25.48527908325195 8.514720916748047 C 23.21878051757812 6.248220443725586 20.20532035827637 5 17 5 M 17 0 C 26.38883972167969 0 34 7.611160278320312 34 17 C 34 26.38883972167969 26.38883972167969 34 17 34 C 7.611160278320312 34 0 26.38883972167969 0 17 C 0 7.611160278320312 7.611160278320312 0 17 0 Z" stroke="none" fill="#3b60e4"/>
      </g>
      <g id="Tracciato_8" data-name="Tracciato 8" transform="translate(1819 771)" fill="none" opacity="0.403">
        <path d="M34,0A34,34,0,1,1,0,34,34,34,0,0,1,34,0Z" stroke="none"/>
        <path d="M 34 5 C 30.08282852172852 5 26.28546524047852 5.766067504882812 22.71342849731445 7.276905059814453 C 19.26071929931641 8.737281799316406 16.1588249206543 10.82897186279297 13.4939079284668 13.4939079284668 C 10.82897186279297 16.1588249206543 8.737281799316406 19.26071929931641 7.276905059814453 22.71342849731445 C 5.766067504882812 26.28546524047852 5 30.08282852172852 5 34 C 5 37.91717529296875 5.766067504882812 41.71453094482422 7.276905059814453 45.28657531738281 C 8.737281799316406 48.73928070068359 10.82897186279297 51.84117126464844 13.4939079284668 54.5060920715332 C 16.1588249206543 57.17102813720703 19.26071929931641 59.26271820068359 22.71342849731445 60.72309494018555 C 26.28546524047852 62.23393249511719 30.08282852172852 63 34 63 C 37.91717529296875 63 41.71453094482422 62.23393249511719 45.28657531738281 60.72309494018555 C 48.73928070068359 59.26271820068359 51.84117126464844 57.17102813720703 54.5060920715332 54.5060920715332 C 57.17102813720703 51.84117126464844 59.26271820068359 48.73928070068359 60.72309494018555 45.28657531738281 C 62.23393249511719 41.71453094482422 63 37.91717529296875 63 34 C 63 30.08282852172852 62.23393249511719 26.28546524047852 60.72309494018555 22.71342849731445 C 59.26271820068359 19.26071929931641 57.17102813720703 16.1588249206543 54.5060920715332 13.4939079284668 C 51.84117126464844 10.82897186279297 48.73928070068359 8.737281799316406 45.28657531738281 7.276905059814453 C 41.71453094482422 5.766067504882812 37.91717529296875 5 34 5 M 34 0 C 52.77767944335938 0 68 15.22232055664062 68 34 C 68 52.77767944335938 52.77767944335938 68 34 68 C 15.22232055664062 68 0 52.77767944335938 0 34 C 0 15.22232055664062 15.22232055664062 0 34 0 Z" stroke="none" fill="#3b60e4"/>
      </g>
      <path id="Tracciato_9" data-name="Tracciato 9" d="M944.135,1689.038s140.682-23,226.711,107.013" transform="matrix(0.891, -0.454, 0.454, 0.891, -686.543, -654.973)" fill="none" stroke="#e9e9e9" stroke-linecap="round" stroke-width="6"/>
      <path id="Tracciato_10" data-name="Tracciato 10" d="M1174.918,1746.469s-17.776,20.52,0,53.392" transform="matrix(0.891, -0.454, 0.454, 0.891, -686.543, -654.973)" fill="none" stroke="#e9e9e9" stroke-linecap="round" stroke-width="6"/>
      <path id="Tracciato_11" data-name="Tracciato 11" d="M1167.018,1746.469s17.776,20.52,0,53.392" transform="matrix(-0.225, -0.974, 0.974, -0.225, -313.693, 1957.261)" fill="none" stroke="#e9e9e9" stroke-linecap="round" stroke-width="6"/>
      <path id="Tracciato_12" data-name="Tracciato 12" d="M0,52.064S68.444,63.254,110.3,0" transform="matrix(-0.309, -0.951, 0.951, -0.309, 1917.791, 757.109)" fill="none" stroke="#e9e9e9" stroke-linecap="round" stroke-width="6"/>
      <path id="Tracciato_13" data-name="Tracciato 13" d="M3.844,25.976S-4.8,15.993,3.844,0" transform="matrix(-0.309, -0.951, 0.951, -0.309, 1882.519, 654.553)" fill="none" stroke="#e9e9e9" stroke-linecap="round" stroke-width="6"/>
      <path id="Tracciato_14" data-name="Tracciato 14" d="M0,25.976S8.648,15.993,0,0" transform="matrix(0.848, -0.53, 0.53, 0.848, 1881.318, 650.856)" fill="none" stroke="#e9e9e9" stroke-linecap="round" stroke-width="6"/>
    </g>
  </g>
</svg>
